<svg xmlns="http://www.w3.org/2000/svg" viewBox="0 0 512 512" width="100%" height="100%">
  <path d="M256 32C132.3 32 32 132.3 32 256s100.3 224 224 224 224-100.3 224-224S379.7 32 256 32zm0 416c-105.8 0-192-86.2-192-192S150.2 64 256 64s192 86.2 192 192-86.2 192-192 192z" fill="#001F3F"/>
  <g fill="none" stroke="#001F3F" stroke-width="20" stroke-linecap="round" stroke-linejoin="round" transform="translate(106, 116) scale(12.5)">
    <path d="M21.42 10.922a1 1 0 0 0-.019-1.838L12.83 5.18a2 2 0 0 0-1.66 0L2.6 9.08a1 1 0 0 0 0 1.832l8.57 3.908a2 2 0 0 0 1.66 0z"/>
    <path d="M6 12v5c0 2 2 3 6 3s6-1 6-3v-5"/>
    <path d="M21.5 12v6"/>
  </g>
</svg>
